<mxfile host="app.diagrams.net" agent="Mozilla/5.0 (Windows NT 10.0; Win64; x64) AppleWebKit/537.36 (KHTML, like Gecko) Chrome/129.0.0.0 Safari/537.36 Edg/129.0.0.0" version="24.7.17">
  <diagram name="Page-1" id="yY6oiZ3P-MgD4QmUa1ms">
    <mxGraphModel dx="2613" dy="4777" grid="1" gridSize="10" guides="1" tooltips="1" connect="1" arrows="1" fold="1" page="1" pageScale="1" pageWidth="850" pageHeight="1100" math="0" shadow="0">
      <root>
        <mxCell id="0" />
        <mxCell id="1" parent="0" />
        <mxCell id="m2oLJQcJsWT3MR1-gXGT-2" value="&lt;font style=&quot;font-size: 18px;&quot;&gt;&lt;u&gt;S-id&lt;/u&gt;&lt;/font&gt;" style="rounded=0;whiteSpace=wrap;html=1;" vertex="1" parent="1">
          <mxGeometry x="65" y="-2142" width="100" height="40" as="geometry" />
        </mxCell>
        <mxCell id="m2oLJQcJsWT3MR1-gXGT-3" value="&lt;b&gt;&lt;font style=&quot;font-size: 18px;&quot;&gt;Student&lt;/font&gt;&lt;/b&gt;" style="text;html=1;align=center;verticalAlign=middle;resizable=0;points=[];autosize=1;strokeColor=none;fillColor=none;" vertex="1" parent="1">
          <mxGeometry x="65" y="-2190" width="90" height="40" as="geometry" />
        </mxCell>
        <mxCell id="m2oLJQcJsWT3MR1-gXGT-4" value="&lt;font style=&quot;font-size: 18px;&quot;&gt;F-name&lt;/font&gt;" style="rounded=0;whiteSpace=wrap;html=1;" vertex="1" parent="1">
          <mxGeometry x="165" y="-2142" width="100" height="40" as="geometry" />
        </mxCell>
        <mxCell id="m2oLJQcJsWT3MR1-gXGT-5" value="&lt;font style=&quot;font-size: 18px;&quot;&gt;L-name&lt;/font&gt;" style="rounded=0;whiteSpace=wrap;html=1;" vertex="1" parent="1">
          <mxGeometry x="265" y="-2142" width="100" height="40" as="geometry" />
        </mxCell>
        <mxCell id="m2oLJQcJsWT3MR1-gXGT-6" value="&lt;font style=&quot;font-size: 18px;&quot;&gt;DOB&lt;/font&gt;" style="rounded=0;whiteSpace=wrap;html=1;" vertex="1" parent="1">
          <mxGeometry x="360" y="-2142" width="100" height="40" as="geometry" />
        </mxCell>
        <mxCell id="m2oLJQcJsWT3MR1-gXGT-7" value="&lt;span style=&quot;font-size: 18px;&quot;&gt;City&lt;/span&gt;" style="rounded=0;whiteSpace=wrap;html=1;" vertex="1" parent="1">
          <mxGeometry x="460" y="-2142" width="100" height="40" as="geometry" />
        </mxCell>
        <mxCell id="m2oLJQcJsWT3MR1-gXGT-8" value="&lt;font style=&quot;font-size: 18px;&quot;&gt;State&lt;/font&gt;" style="rounded=0;whiteSpace=wrap;html=1;" vertex="1" parent="1">
          <mxGeometry x="555" y="-2142" width="100" height="40" as="geometry" />
        </mxCell>
        <mxCell id="m2oLJQcJsWT3MR1-gXGT-9" value="&lt;font style=&quot;font-size: 18px;&quot;&gt;Pin-code&lt;/font&gt;" style="rounded=0;whiteSpace=wrap;html=1;" vertex="1" parent="1">
          <mxGeometry x="655" y="-2142" width="100" height="40" as="geometry" />
        </mxCell>
        <mxCell id="m2oLJQcJsWT3MR1-gXGT-10" value="&lt;b style=&quot;forced-color-adjust: none; color: rgb(0, 0, 0); font-family: Helvetica; font-size: 12px; font-style: normal; font-variant-ligatures: normal; font-variant-caps: normal; letter-spacing: normal; orphans: 2; text-align: center; text-indent: 0px; text-transform: none; widows: 2; word-spacing: 0px; -webkit-text-stroke-width: 0px; white-space: nowrap; background-color: rgb(251, 251, 251); text-decoration-thickness: initial; text-decoration-style: initial; text-decoration-color: initial;&quot;&gt;&lt;font style=&quot;forced-color-adjust: none; font-size: 18px;&quot;&gt;Student Phone&lt;/font&gt;&lt;/b&gt;" style="text;whiteSpace=wrap;html=1;" vertex="1" parent="1">
          <mxGeometry x="73.12" y="-2040" width="100" height="50" as="geometry" />
        </mxCell>
        <mxCell id="m2oLJQcJsWT3MR1-gXGT-11" value="&lt;font style=&quot;font-size: 18px;&quot;&gt;&lt;u&gt;&lt;strike&gt;S-id&lt;/strike&gt;&lt;/u&gt;&lt;/font&gt;" style="rounded=0;whiteSpace=wrap;html=1;" vertex="1" parent="1">
          <mxGeometry x="73.12" y="-2000" width="100" height="40" as="geometry" />
        </mxCell>
        <mxCell id="m2oLJQcJsWT3MR1-gXGT-12" value="&lt;font style=&quot;font-size: 18px;&quot;&gt;&lt;u&gt;&lt;strike&gt;Phone&lt;/strike&gt;&lt;/u&gt;&lt;/font&gt;" style="rounded=0;whiteSpace=wrap;html=1;" vertex="1" parent="1">
          <mxGeometry x="173.12" y="-2000" width="100" height="40" as="geometry" />
        </mxCell>
        <mxCell id="m2oLJQcJsWT3MR1-gXGT-13" value="&lt;b style=&quot;forced-color-adjust: none; color: rgb(0, 0, 0); font-family: Helvetica; font-size: 12px; font-style: normal; font-variant-ligatures: normal; font-variant-caps: normal; letter-spacing: normal; orphans: 2; text-align: center; text-indent: 0px; text-transform: none; widows: 2; word-spacing: 0px; -webkit-text-stroke-width: 0px; white-space: nowrap; background-color: rgb(251, 251, 251); text-decoration-thickness: initial; text-decoration-style: initial; text-decoration-color: initial;&quot;&gt;&lt;font style=&quot;forced-color-adjust: none; font-size: 18px;&quot;&gt;Student Course&lt;/font&gt;&lt;/b&gt;" style="text;whiteSpace=wrap;html=1;" vertex="1" parent="1">
          <mxGeometry x="73.12" y="-1880" width="100" height="50" as="geometry" />
        </mxCell>
        <mxCell id="m2oLJQcJsWT3MR1-gXGT-14" value="&lt;font style=&quot;font-size: 18px;&quot;&gt;&lt;u&gt;&lt;strike&gt;S-id&lt;/strike&gt;&lt;/u&gt;&lt;/font&gt;" style="rounded=0;whiteSpace=wrap;html=1;" vertex="1" parent="1">
          <mxGeometry x="68.12" y="-1830" width="100" height="40" as="geometry" />
        </mxCell>
        <mxCell id="m2oLJQcJsWT3MR1-gXGT-15" value="&lt;font style=&quot;font-size: 18px;&quot;&gt;&lt;u&gt;&lt;strike&gt;Course-ID&lt;/strike&gt;&lt;/u&gt;&lt;/font&gt;" style="rounded=0;whiteSpace=wrap;html=1;" vertex="1" parent="1">
          <mxGeometry x="168.12" y="-1830" width="100" height="40" as="geometry" />
        </mxCell>
        <mxCell id="m2oLJQcJsWT3MR1-gXGT-17" value="&lt;b style=&quot;text-wrap: nowrap; text-align: center;&quot;&gt;&lt;font style=&quot;font-size: 18px;&quot;&gt;Hostel&lt;/font&gt;&lt;/b&gt;" style="text;whiteSpace=wrap;html=1;" vertex="1" parent="1">
          <mxGeometry x="73.12" y="-1720" width="100" height="50" as="geometry" />
        </mxCell>
        <mxCell id="m2oLJQcJsWT3MR1-gXGT-18" value="&lt;font style=&quot;font-size: 18px;&quot;&gt;&lt;strike&gt;Hostel-ID&lt;/strike&gt;&lt;/font&gt;" style="rounded=0;whiteSpace=wrap;html=1;" vertex="1" parent="1">
          <mxGeometry x="750" y="-2142" width="90" height="40" as="geometry" />
        </mxCell>
        <mxCell id="m2oLJQcJsWT3MR1-gXGT-19" value="&lt;font style=&quot;font-size: 18px;&quot;&gt;&lt;strike&gt;F-ID&lt;/strike&gt;&lt;/font&gt;" style="rounded=0;whiteSpace=wrap;html=1;" vertex="1" parent="1">
          <mxGeometry x="840" y="-2142" width="90" height="40" as="geometry" />
        </mxCell>
        <mxCell id="m2oLJQcJsWT3MR1-gXGT-20" value="&lt;font style=&quot;font-size: 18px;&quot;&gt;&lt;u&gt;Hostel-ID&lt;/u&gt;&lt;/font&gt;" style="rounded=0;whiteSpace=wrap;html=1;" vertex="1" parent="1">
          <mxGeometry x="63.120000000000005" y="-1680" width="100" height="40" as="geometry" />
        </mxCell>
        <mxCell id="m2oLJQcJsWT3MR1-gXGT-21" value="&lt;font style=&quot;font-size: 18px;&quot;&gt;Hostel-Name&lt;/font&gt;" style="rounded=0;whiteSpace=wrap;html=1;" vertex="1" parent="1">
          <mxGeometry x="163.12" y="-1680" width="140" height="40" as="geometry" />
        </mxCell>
        <mxCell id="m2oLJQcJsWT3MR1-gXGT-22" value="&lt;font style=&quot;font-size: 18px;&quot;&gt;No-of-Seats&lt;/font&gt;" style="rounded=0;whiteSpace=wrap;html=1;" vertex="1" parent="1">
          <mxGeometry x="293.12" y="-1680" width="130" height="40" as="geometry" />
        </mxCell>
        <mxCell id="m2oLJQcJsWT3MR1-gXGT-25" value="&lt;b style=&quot;text-wrap: nowrap; text-align: center;&quot;&gt;&lt;font style=&quot;font-size: 18px;&quot;&gt;Subjects&lt;/font&gt;&lt;/b&gt;" style="text;whiteSpace=wrap;html=1;" vertex="1" parent="1">
          <mxGeometry x="63.120000000000005" y="-1570" width="90" height="50" as="geometry" />
        </mxCell>
        <mxCell id="m2oLJQcJsWT3MR1-gXGT-26" value="&lt;font style=&quot;font-size: 18px;&quot;&gt;&lt;u&gt;Subject-ID&lt;/u&gt;&lt;/font&gt;" style="rounded=0;whiteSpace=wrap;html=1;" vertex="1" parent="1">
          <mxGeometry x="63.120000000000005" y="-1510" width="100" height="40" as="geometry" />
        </mxCell>
        <mxCell id="m2oLJQcJsWT3MR1-gXGT-27" value="&lt;font style=&quot;font-size: 18px;&quot;&gt;Subject-Name&lt;/font&gt;" style="rounded=0;whiteSpace=wrap;html=1;" vertex="1" parent="1">
          <mxGeometry x="163.12" y="-1510" width="140" height="40" as="geometry" />
        </mxCell>
        <mxCell id="m2oLJQcJsWT3MR1-gXGT-29" value="&lt;font style=&quot;font-size: 18px;&quot;&gt;&lt;strike style=&quot;font-weight: normal;&quot;&gt;F-ID&lt;/strike&gt;&lt;/font&gt;" style="rounded=0;whiteSpace=wrap;html=1;fontStyle=1" vertex="1" parent="1">
          <mxGeometry x="298.12" y="-1510" width="140" height="40" as="geometry" />
        </mxCell>
        <mxCell id="m2oLJQcJsWT3MR1-gXGT-30" value="&lt;div style=&quot;text-align: center;&quot;&gt;&lt;span style=&quot;background-color: initial; font-size: 18px; text-wrap: nowrap;&quot;&gt;&lt;b&gt;Faculty&lt;/b&gt;&lt;/span&gt;&lt;/div&gt;" style="text;whiteSpace=wrap;html=1;" vertex="1" parent="1">
          <mxGeometry x="78.12" y="-1420" width="110" height="50" as="geometry" />
        </mxCell>
        <mxCell id="m2oLJQcJsWT3MR1-gXGT-31" value="&lt;font style=&quot;font-size: 18px;&quot;&gt;&lt;u&gt;F-ID&lt;/u&gt;&lt;/font&gt;" style="rounded=0;whiteSpace=wrap;html=1;fontStyle=1" vertex="1" parent="1">
          <mxGeometry x="63.120000000000005" y="-1370" width="140" height="40" as="geometry" />
        </mxCell>
        <mxCell id="m2oLJQcJsWT3MR1-gXGT-32" value="&lt;font style=&quot;font-size: 18px;&quot;&gt;Faculty-Name&lt;/font&gt;" style="rounded=0;whiteSpace=wrap;html=1;" vertex="1" parent="1">
          <mxGeometry x="198.12" y="-1370" width="140" height="40" as="geometry" />
        </mxCell>
        <mxCell id="m2oLJQcJsWT3MR1-gXGT-33" value="&lt;font style=&quot;font-size: 18px;&quot;&gt;Faculty-Dep&lt;/font&gt;" style="rounded=0;whiteSpace=wrap;html=1;" vertex="1" parent="1">
          <mxGeometry x="328.12" y="-1370" width="140" height="40" as="geometry" />
        </mxCell>
        <mxCell id="m2oLJQcJsWT3MR1-gXGT-34" value="&lt;font style=&quot;font-size: 18px;&quot;&gt;Faculty-Salary&lt;/font&gt;" style="rounded=0;whiteSpace=wrap;html=1;" vertex="1" parent="1">
          <mxGeometry x="458.12" y="-1370" width="140" height="40" as="geometry" />
        </mxCell>
        <mxCell id="m2oLJQcJsWT3MR1-gXGT-36" value="&lt;b style=&quot;text-wrap: nowrap; font-size: 18px; text-align: center;&quot;&gt;Faculty Mobile&lt;/b&gt;" style="text;whiteSpace=wrap;html=1;" vertex="1" parent="1">
          <mxGeometry x="70" y="-1280" width="100" height="50" as="geometry" />
        </mxCell>
        <mxCell id="m2oLJQcJsWT3MR1-gXGT-37" value="&lt;font style=&quot;font-size: 18px;&quot;&gt;&lt;u&gt;&lt;strike&gt;F-ID&lt;/strike&gt;&lt;/u&gt;&lt;/font&gt;" style="rounded=0;whiteSpace=wrap;html=1;fontStyle=1" vertex="1" parent="1">
          <mxGeometry x="60" y="-1220" width="140" height="40" as="geometry" />
        </mxCell>
        <mxCell id="m2oLJQcJsWT3MR1-gXGT-38" value="&lt;span style=&quot;font-size: 18px;&quot;&gt;&lt;strike&gt;Mobile-Number&lt;/strike&gt;&lt;/span&gt;" style="rounded=0;whiteSpace=wrap;html=1;" vertex="1" parent="1">
          <mxGeometry x="190" y="-1220" width="140" height="40" as="geometry" />
        </mxCell>
        <mxCell id="m2oLJQcJsWT3MR1-gXGT-39" value="&lt;font style=&quot;font-size: 18px;&quot;&gt;&lt;strike&gt;Department-ID&lt;/strike&gt;&lt;/font&gt;" style="rounded=0;whiteSpace=wrap;html=1;" vertex="1" parent="1">
          <mxGeometry x="598.12" y="-1370" width="140" height="40" as="geometry" />
        </mxCell>
        <mxCell id="m2oLJQcJsWT3MR1-gXGT-40" value="&lt;div style=&quot;text-align: center;&quot;&gt;&lt;span style=&quot;background-color: initial; font-size: 18px; text-wrap: nowrap;&quot;&gt;&lt;b&gt;Exam&lt;/b&gt;&lt;/span&gt;&lt;/div&gt;" style="text;whiteSpace=wrap;html=1;" vertex="1" parent="1">
          <mxGeometry x="66.25" y="-1120" width="100" height="50" as="geometry" />
        </mxCell>
        <mxCell id="m2oLJQcJsWT3MR1-gXGT-41" value="&lt;font style=&quot;font-size: 18px;&quot;&gt;&lt;u style=&quot;font-weight: normal;&quot;&gt;Exam-Code&lt;/u&gt;&lt;/font&gt;" style="rounded=0;whiteSpace=wrap;html=1;fontStyle=1" vertex="1" parent="1">
          <mxGeometry x="63.75" y="-1080" width="140" height="40" as="geometry" />
        </mxCell>
        <mxCell id="m2oLJQcJsWT3MR1-gXGT-42" value="&lt;font style=&quot;font-size: 18px;&quot;&gt;Room&lt;/font&gt;" style="rounded=0;whiteSpace=wrap;html=1;" vertex="1" parent="1">
          <mxGeometry x="198.75" y="-1080" width="140" height="40" as="geometry" />
        </mxCell>
        <mxCell id="m2oLJQcJsWT3MR1-gXGT-43" value="&lt;font style=&quot;font-size: 18px;&quot;&gt;Date&lt;/font&gt;" style="rounded=0;whiteSpace=wrap;html=1;" vertex="1" parent="1">
          <mxGeometry x="328.75" y="-1080" width="140" height="40" as="geometry" />
        </mxCell>
        <mxCell id="m2oLJQcJsWT3MR1-gXGT-44" value="&lt;font style=&quot;font-size: 18px;&quot;&gt;Time&lt;/font&gt;" style="rounded=0;whiteSpace=wrap;html=1;" vertex="1" parent="1">
          <mxGeometry x="458.75" y="-1080" width="140" height="40" as="geometry" />
        </mxCell>
        <mxCell id="m2oLJQcJsWT3MR1-gXGT-45" value="&lt;font style=&quot;font-size: 18px;&quot;&gt;&lt;strike&gt;Department-ID&lt;/strike&gt;&lt;/font&gt;" style="rounded=0;whiteSpace=wrap;html=1;" vertex="1" parent="1">
          <mxGeometry x="596.25" y="-1080" width="140" height="40" as="geometry" />
        </mxCell>
        <mxCell id="m2oLJQcJsWT3MR1-gXGT-46" value="&lt;b style=&quot;text-wrap: nowrap; font-size: 18px; text-align: center;&quot;&gt;Department&lt;/b&gt;" style="text;whiteSpace=wrap;html=1;" vertex="1" parent="1">
          <mxGeometry x="67.5" y="-1010" width="100" height="50" as="geometry" />
        </mxCell>
        <mxCell id="m2oLJQcJsWT3MR1-gXGT-48" value="&lt;u style=&quot;font-size: 18px;&quot;&gt;Department-ID&lt;/u&gt;" style="rounded=0;whiteSpace=wrap;html=1;" vertex="1" parent="1">
          <mxGeometry x="67.5" y="-960" width="150" height="40" as="geometry" />
        </mxCell>
        <mxCell id="m2oLJQcJsWT3MR1-gXGT-49" value="&lt;u style=&quot;font-size: 18px;&quot;&gt;Department-Name&lt;/u&gt;" style="rounded=0;whiteSpace=wrap;html=1;" vertex="1" parent="1">
          <mxGeometry x="215" y="-960" width="167.5" height="40" as="geometry" />
        </mxCell>
        <mxCell id="m2oLJQcJsWT3MR1-gXGT-50" value="&lt;div style=&quot;text-align: center;&quot;&gt;&lt;span style=&quot;background-color: initial; font-size: 18px; text-wrap: nowrap;&quot;&gt;&lt;b&gt;Course&lt;/b&gt;&lt;/span&gt;&lt;/div&gt;" style="text;whiteSpace=wrap;html=1;" vertex="1" parent="1">
          <mxGeometry x="65" y="-870" width="110" height="50" as="geometry" />
        </mxCell>
        <mxCell id="m2oLJQcJsWT3MR1-gXGT-51" value="&lt;font style=&quot;font-size: 18px;&quot;&gt;&lt;u&gt;Course -ID&lt;/u&gt;&lt;/font&gt;" style="rounded=0;whiteSpace=wrap;html=1;" vertex="1" parent="1">
          <mxGeometry x="65" y="-820" width="100" height="40" as="geometry" />
        </mxCell>
        <mxCell id="m2oLJQcJsWT3MR1-gXGT-52" value="&lt;font style=&quot;font-size: 18px;&quot;&gt;Course-Name&lt;/font&gt;" style="rounded=0;whiteSpace=wrap;html=1;" vertex="1" parent="1">
          <mxGeometry x="165" y="-820" width="140" height="40" as="geometry" />
        </mxCell>
        <mxCell id="m2oLJQcJsWT3MR1-gXGT-53" value="&lt;font style=&quot;font-size: 18px;&quot;&gt;Duration&lt;/font&gt;" style="rounded=0;whiteSpace=wrap;html=1;" vertex="1" parent="1">
          <mxGeometry x="295" y="-820" width="140" height="40" as="geometry" />
        </mxCell>
      </root>
    </mxGraphModel>
  </diagram>
</mxfile>
